@startuml KruidnotenFabriek

' ---Visual effects

skinparam SequenceMessageTextAlignment center
skinparam SequenceMessageAlignment center

skinparam rectangleBorderThickness 1
skinparam defaultTextAlignment center
skinparam lifelineStrategy solid

' left to right direction
skinparam linetype polyline
skinparam linetype ortho

' ---Dark mode

' skinparam monochrome reverse


class KruidnotenFabriek{
    List<kruidnoten> kruidnoten
    List<Pair<Pair<Ingredient, Date>float>> ingredienten
}
class Kruidnoten{
    Recept recept
    float kilo
    Date gemaakt
    Date goedtotenmet
}
class Recept{
    List<Pair<Ingredient, float >> recept
    List<String> stappen
}
interface Ingredient{
}
class boter implements Ingredient
class ei implements Ingredient
class meel implements Ingredient
class water implements Ingredient
class zout implements Ingredient
class chocola implements Ingredient

Recept --o Ingredient
KruidnotenFabriek --o Ingredient
KruidnotenFabriek --o Kruidnoten
Kruidnoten *-- Recept

@enduml